<svg version="1.1" preserveAspectRatio="none" xmlns="http://www.w3.org/2000/svg" width="500" height="500" viewBox="0 0 500 500"><rect width="100%" height="100%" fill="#FFFFFF" fill-opacity="1"/><svg viewBox="52.1109 412.6538 664.988 174" width="333" height="87.13239938164298" x="83.5px" y="206.4338px" xmlns="http://www.w3.org/2000/svg" xmlns:xlink="http://www.w3.org/1999/xlink" preserveAspectRatio="none"><defs></defs><style>.aD6z1nYkhcolor {fill:#42A5FF;fill-opacity:1;}.aIptOCySncolors-3 {fill:#3CB9EF;fill-opacity:1;}.aIptOCySncolors-4 {fill:#83EDFF;fill-opacity:1;}.aIptOCySncolors-5 {fill:#AEDDFF;fill-opacity:1;}.aIptOCySncolors-6 {fill:#FFF1FF;fill-opacity:1;}.aIptOCySncolors-7 {fill:#FFE4CE;fill-opacity:1;}.icon1 {fill:#42A5FF;fill-opacity:1;}.icon2 {fill:#6DDDD0;fill-opacity:1;}.icon3 {fill:#FFD4D4;fill-opacity:1;}.icon3-str {stroke:#FFD4D4;stroke-opacity:1;}.text {fill:#42A5FF;fill-opacity:1;}</style><g opacity="1" transform="rotate(0 52.1109 412.6538)">
<svg width="310.2437" height="174" x="52.1109" y="412.6538" version="1.1" preserveAspectRatio="none" viewBox="20 55.131996154785156 160.0006103515625 89.73633575439453">
  <g transform="matrix(1 0 0 1 0 0)"><g><path d="M48.152 138.543c-12-22.403-21.518-50.331-28.152-76.39 6.321 7.39 14.297 14.974 22.115 19.096 7.817 4.128 10.408 8.484 17.092 1.686 5.565-5.659 13.153-21.284 16.247-25.839 6.445 10.15 16.903 22.607 25.307 29.783 7.435-11.597 18.161-21.075 25.103-31.747 2.651 12.621 13.899 29.072 19.514 30.514 2.85.731 5.57-2.064 8.151-3.829 8.792-5.992 17.584-11.99 26.377-17.982 1.606 25.004-17.674 50.073-24.258 73.585-1.044 3.725-15.67 4.212-18.783 4.496-16.903 1.517-33.045.875-49.948 2.392-14.512 1.302-35.732.7-38.765-5.765" data-color="1" class="icon1"></path></g></g>
</svg>
</g><g opacity="1" transform="rotate(0 382.3546 543.6538)">
<svg width="111.279" height="28" x="382.3546" y="543.6538" version="1.1" preserveAspectRatio="none" viewBox="4.56 -28 111.27999999999999 28">
  <g transform="matrix(1 0 0 1 0 0)" class="text"><path id="id-6izo4zJp4" d="M15.04-28Q20.40-28 23.44-25.44Q26.48-22.88 26.48-18.40L26.48-18.40Q26.48-13.92 23.44-11.38Q20.40-8.84 15.04-8.84L15.04-8.84L7.52-8.84L7.52 0L4.56 0L4.56-28L15.04-28ZM14.96-11.44Q19.12-11.44 21.32-13.26Q23.52-15.08 23.52-18.40L23.52-18.40Q23.52-21.80 21.32-23.62Q19.12-25.44 14.96-25.44L14.96-25.44L7.52-25.44L7.52-11.44L14.96-11.44Z M36.88 0L36.88-28L39.84-28L39.84-2.56L55.52-2.56L55.52 0L36.88 0Z M67.40-2.56L84.24-2.56L84.24 0L64.44 0L64.44-28L83.64-28L83.64-25.44L67.40-25.44L67.40-15.48L81.88-15.48L81.88-12.96L67.40-12.96L67.40-2.56Z M115.84 0L112.40 0L103.36-12.32L94.36 0L90.96 0L101.60-14.40L91.64-28L95.04-28L103.48-16.56L111.88-28L115.08-28L105.16-14.48L115.84 0Z"/></g>
</svg>
</g><g opacity="1" transform="rotate(0 382.3546 427.6538)">
<svg width="334.7443" height="100" x="382.3546" y="427.6538" version="1.1" preserveAspectRatio="none" viewBox="3.0859 -26.5234 79.58990000000001 26.5234">
  <g transform="matrix(1 0 0 1 0 0)" class="aD6z1nYkhcolor"><path id="id-D6z1nYkh4" d="M3.09 0L3.09-26.52L12.17-26.52Q14.12-26.52 15.66-25.99Q17.21-25.45 18.28-24.42Q19.36-23.40 19.91-21.92Q20.47-20.45 20.47-18.57L20.47-18.57Q20.47-16.88 19.87-15.32Q19.28-13.77 18.10-12.57Q16.91-11.37 15.16-10.65Q13.40-9.94 11.07-9.94L11.07-9.94Q10.33-9.94 9.69-9.96Q9.04-9.98 8.55-10.02L8.55-10.02Q7.99-10.06 7.52-10.12L7.52-10.12L7.52 0L3.09 0ZM7.52-23.13L7.52-13.42Q7.81-13.38 8.40-13.33Q8.98-13.28 9.80-13.28L9.80-13.28Q11.13-13.28 12.26-13.55Q13.38-13.83 14.20-14.42Q15.02-15.02 15.48-15.98Q15.94-16.93 15.94-18.30L15.94-18.30Q15.94-19.39 15.71-20.28Q15.49-21.17 15.01-21.81Q14.53-22.44 13.77-22.78Q13.01-23.13 11.93-23.13L11.93-23.13L7.52-23.13Z M24.49 0L24.49-26.52L28.93-26.52L28.93-3.67Q29.75-3.67 30.63-3.69Q31.52-3.71 32.41-3.73Q33.30-3.75 34.15-3.78Q35-3.81 35.76-3.85L35.76-3.85Q37.56-3.93 39.28-4.00L39.28-4.00Q39.28-3.67 39.19-3.01Q39.10-2.34 38.98-1.67Q38.87-1.00 38.76-0.50Q38.65 0 38.59 0L38.59 0L24.49 0Z M43.89 0L43.89-26.52L59.10-26.52Q59.10-26.39 59.12-26.23L59.12-26.23Q59.14-26.09 59.15-25.93Q59.16-25.76 59.16-25.57L59.16-25.57Q59.16-25.23 59.03-24.56Q58.91-23.89 58.48-23.01L58.48-23.01Q56.86-23.07 55.12-23.13L55.12-23.13Q53.63-23.16 51.84-23.21Q50.04-23.26 48.32-23.26L48.32-23.26L48.32-15.25Q48.89-15.25 49.60-15.26Q50.31-15.27 51.08-15.29Q51.86-15.31 52.64-15.33Q53.42-15.35 54.16-15.37L54.16-15.37Q55.88-15.43 57.70-15.47L57.70-15.47Q57.70-15.31 57.71-15.14L57.71-15.14Q57.73-14.98 57.74-14.78Q57.75-14.57 57.75-14.36L57.75-14.36Q57.75-14.26 57.72-13.97Q57.70-13.69 57.63-13.34Q57.56-12.99 57.47-12.64Q57.38-12.29 57.27-12.05L57.27-12.05Q55.45-12.05 53.77-12.07L53.77-12.07Q53.05-12.07 52.29-12.07Q51.52-12.07 50.81-12.08Q50.10-12.09 49.45-12.09Q48.81-12.09 48.32-12.09L48.32-12.09L48.32-3.34Q50.04-3.34 51.94-3.40Q53.85-3.46 55.49-3.52L55.49-3.52Q57.40-3.59 59.26-3.69L59.26-3.69Q59.26-3.52 59.28-3.32L59.28-3.32Q59.30-3.16 59.31-2.94Q59.32-2.71 59.32-2.50L59.32-2.50Q59.32-2.09 59.26-1.43Q59.20-0.76 59.00 0L59.00 0L43.89 0Z M60.80 0L68.96-13.57L60.92-26.52L65.94-26.52L69.79-19.92L71.54-16.25L71.68-16.25L73.46-19.92L77.21-26.52L82.36-26.52L74.08-13.14L82.68 0L77.42 0L72.89-7.62L71.50-10.39L71.43-10.39L70.10-7.62L65.88 0L60.80 0Z"/></g>
</svg>
</g></svg></svg>